<?xml version="1.0" standalone="no"?>
<!DOCTYPE svg PUBLIC "-//W3C//DTD SVG 20010904//EN"
 "http://www.w3.org/TR/2001/REC-SVG-20010904/DTD/svg10.dtd">
<svg version="1.0" xmlns="http://www.w3.org/2000/svg"
 width="3480.000000pt" height="300.000000pt" viewBox="0 0 3480.000000 300.000000"
 preserveAspectRatio="xMidYMid meet">
<metadata>
Created by potrace 1.16, written by Peter Selinger 2001-2019
</metadata>
<g transform="translate(0.000000,300.000000) scale(0.100000,-0.100000)"
fill="#000000" stroke="none">
<path d="M 0 1800 
  l 0 -1200
    7940 0
  c 5565 0
    7970 -3
    8038 -11
    195 -21
    376 -73
    555 -157
    129 -62
    213 -113
    357 -220
    250 -186
    426 -242
    618 -197
    122 29
    206 73
    365 193 
    271 203 
    477 297
    817 370
    68 15
    772 16
    8093 19
    l8017 3
    0 1200
    0 1200
    -17400 0
    -17400 0
    0 -1200
  z"
/>
</g>
</svg>
