<svg id="logo-svg" version="1.0" xmlns="http://www.w3.org/2000/svg"
 width="229.000000pt" height="342.000000pt" viewBox="0 0 229.000000 342.000000"
 preserveAspectRatio="xMidYMid meet">
  <g transform="translate(0.000000,342.000000) scale(0.100000,-0.100000)"
  fill="#000" stroke="none">
    <path d="M933 3023 c-743 -1243 -893 -1496 -893 -1504 0 -11 1087 -12 1093 -1
    2 4 -45 89 -105 190 l-109 182 -103 0 c-56 0 -105 -3 -109 -6 -3 -3 17 -43 44
    -89 27 -46 49 -86 49 -89 0 -3 -94 -6 -210 -6 -143 0 -210 3 -210 11 0 8 243
    420 702 1187 28 46 55 81 60 80 6 -2 48 -67 94 -143 46 -77 92 -155 104 -172
    l20 -33 111 0 c60 0 108 3 106 8 -31 58 -432 722 -436 722 -4 0 -97 -152 -208
    -337z"/>
    <path d="M1140 1885 c0 -3 50 -89 110 -190 l111 -185 109 0 c61 0 110 3 110 7
    0 3 -20 41 -45 84 -25 43 -45 83 -45 89 0 6 69 10 205 10 120 0 205 -4 205 -9
    0 -5 -102 -180 -226 -388 -124 -208 -293 -492 -376 -631 -83 -138 -153 -252
    -157 -252 -4 0 -49 71 -100 158 -52 86 -100 167 -108 180 -13 21 -20 22 -118
    22 -57 0 -106 -4 -109 -9 -7 -10 418 -724 433 -729 5 -2 60 82 121 185 62 103
    235 393 385 643 541 906 595 997 595 1008 0 9 -139 12 -550 12 -302 0 -550 -2
    -550 -5z"/>
  </g>
</svg>
